<?xml version="1.0" ?><!DOCTYPE svg  PUBLIC '-//W3C//DTD SVG 1.1//EN'  'http://www.w3.org/Graphics/SVG/1.1/DTD/svg11.dtd'><svg width="846.66px" height="846.66px" viewBox="0 0 846.66 846.66" style="shape-rendering:geometricPrecision; text-rendering:geometricPrecision; image-rendering:optimizeQuality; fill-rule:evenodd; clip-rule:evenodd" version="1.1" xml:space="preserve" xmlns="http://www.w3.org/2000/svg" xmlns:xlink="http://www.w3.org/1999/xlink"><defs><style type="text/css">
   <![CDATA[
    .fil0 {fill:black;fill-rule:nonzero}
   ]]>
  </style></defs><g id="Layer_x0020_1"><path class="fil0" d="M149.09 50.95l668.58 0c11.46,0 20.76,9.29 20.76,20.76l0 612.86c0,6.73 -3.2,12.71 -8.17,16.5l-95.05 88.97c-3.99,3.72 -9.05,5.56 -14.11,5.56l-572.01 0.11c-11.46,0 -20.76,-9.29 -20.76,-20.76l0 -61.42 -113.24 -123.75c-4.21,-3.79 -6.86,-9.29 -6.86,-15.41l0 -344.2c0,-11.46 9.3,-20.76 20.76,-20.76l99.34 0 0 -137.7c0,-11.47 9.3,-20.76 20.76,-20.76zm-20.76 601.37l0 -401.39 -78.58 0 0 315.52 78.58 85.87zm111.14 -369.19c-27.3,0 -27.3,-41.52 0,-41.52l487.82 0c27.31,0 27.31,41.52 0,41.52l-487.82 0zm0 -84.2c-27.3,0 -27.3,-41.51 0,-41.51l487.82 0c27.31,0 27.31,41.51 0,41.51l-487.82 0zm281.05 271.15c-27.3,0 -27.3,-41.51 0,-41.51l212.96 0c27.3,0 27.3,41.51 0,41.51l-212.96 0zm0 113.91c-27.3,0 -27.3,-41.52 0,-41.52l212.96 0c27.3,0 27.3,41.52 0,41.52l-212.96 0zm-287.24 -208.66l220.39 0c11.46,0 20.76,9.29 20.76,20.76l0 220.38c0,11.46 -9.3,20.76 -20.76,20.76l-220.39 0c-11.46,0 -20.76,-9.3 -20.76,-20.76l0 -220.38c0,-11.47 9.3,-20.76 20.76,-20.76zm199.63 41.52l-178.87 0 0 178.86 178.87 0 0 -178.86zm364 -324.39l-627.06 0 0 661.74 543.21 0 83.85 -78.49 0 -583.25z"/></g></svg>